<svg width="29" height="20" viewBox="0 0 29 20" fill="none" xmlns="http://www.w3.org/2000/svg">
<path d="M12.6363 4.27586L17.1966 8.61905L21.757 4.27586L23.1363 5.72414L18.6466 10L23.1363 14.2759L21.757 15.7241L17.1966 11.381L12.6363 15.7241L11.257 14.2759L15.7466 10L11.257 5.72414L12.6363 4.27586Z" fill="#DADCE0"/>
<path fill-rule="evenodd" clip-rule="evenodd" d="M8.54445 0C8.17414 0 7.82457 0.170966 7.59722 0.463271L0.752777 9.26327C0.41574 9.6966 0.415742 10.3034 0.752777 10.7367L7.59722 19.5367C7.82457 19.829 8.17413 20 8.54444 20H27.2466C27.9094 20 28.4466 19.4627 28.4466 18.8V1.2C28.4466 0.537253 27.9094 0 27.2466 0H8.54445ZM2.71349 10L8.93571 2H26.4466V18H8.93571L2.71349 10Z" fill="#DADCE0"/>
</svg>
